<?xml version="1.0" encoding="UTF-8"?>
<svg width="254px" height="273px" viewBox="0 0 254 273" version="1.1" xmlns="http://www.w3.org/2000/svg" xmlns:xlink="http://www.w3.org/1999/xlink">
    <!-- Generator: Sketch 63.1 (92452) - https://sketch.com -->
    <title>Logo@1x</title>
    <desc>Created with Sketch.</desc>
    <g id="Page-1" stroke="none" stroke-width="1" fill="none" fill-rule="evenodd">
        <g id="Logo" transform="translate(-17.000000, -150.000000)">
            <g id="Haus" transform="translate(19.000000, 150.000000)">
                <g>
                    <g id="iconfinder_wifi_Symbol_925808" transform="translate(32.000000, 0.000000)" fill="#000000" fill-rule="nonzero">
                        <path d="M30.4128,30.4128 C26.8224,30.4128 23.232,31.8912 20.9088,34.6368 C18.7968,37.1712 14.9952,33.792 17.1072,31.2576 C20.4864,27.456 25.344,25.344 30.4128,25.344 C35.4816,25.344 40.3392,27.456 43.7184,31.2576 C45.8304,33.792 42.0288,37.1712 39.9168,34.6368 C37.5936,31.8912 34.0032,30.4128 30.4128,30.4128 Z M30.4128,17.7408 C23.6544,17.7408 17.5296,20.064 12.672,24.9216 C10.56,27.0336 6.5472,23.8656 9.0816,21.3312 C14.784,15.6288 22.3872,12.672 30.4128,12.672 C38.4384,12.672 46.0416,15.6288 51.744,21.3312 C54.2784,23.8656 50.2656,27.0336 48.1536,24.9216 C43.296,20.064 37.1712,17.7408 30.4128,17.7408 Z M30.4128,5.0688 C20.6976,5.0688 11.616,8.6592 4.6464,15.2064 C2.112,17.5296 -1.4784,13.9392 1.056,11.616 C9.2928,4.0128 19.4304,0 30.4128,0 C41.3952,0 51.5328,4.0128 59.7696,11.616 C62.304,13.9392 58.7136,17.5296 56.1792,15.2064 C49.2096,8.6592 40.128,5.0688 30.4128,5.0688 Z" id="Shape"></path>
                    </g>
                    <polygon id="Path-4" stroke="#979797" fill="#FFFFFF" points="17 271 231 269 229 262 128 259 19 262"></polygon>
                    <polygon id="Path" stroke="#000000" stroke-width="3.63" fill="#FFFFFF" stroke-linecap="round" stroke-linejoin="round" points="125.275716 47.274515 25.644377 87.18092 27.1190645 259.02512 223.819145 259.86728 224.330975 88.072085"></polygon>
                    <path d="M249.31082,116.415125 C242.30492,116.415125 125.220722,48.595835 124.987313,47.274515 C124.735028,45.847925 124.382555,31.7 124.382555,31.7 L249.31082,92.983475 C249.31082,92.983475 249.443315,116.415125 249.31082,116.415125 Z" id="Path" stroke="#000000" stroke-width="3.53925" fill="#C70000" stroke-linecap="round" stroke-linejoin="round"></path>
                    <polyline id="Path" stroke="#000000" stroke-width="3.63" fill="#5F3F1D" stroke-linecap="round" stroke-linejoin="round" points="53.5730525 74.056655 53.5730525 42.90581 72.0824225 42.90581 71.8751495 58.48214"></polyline>
                    <g id="Brille" transform="translate(13.489317, 129.118783)" stroke="#000000" stroke-linecap="round" stroke-linejoin="round" stroke-width="3.63">
                        <path d="M129.803723,43.2927219 C121.480133,32.8365069 118.173203,21.1823919 126.538538,9.55913188 C134.903873,-2.06594312 176.921123,4.68041188 176.921123,4.68041188 C176.921123,4.68041188 180.817928,13.6338069 181.576598,23.4239169 C182.137433,30.6603219 180.983093,38.3541069 175.274918,43.2273819 C161.842103,54.6909219 138.862388,54.6709569 129.803723,43.2927219 Z" id="Path" fill="#C9E9FF"></path>
                        <path d="M181.703648,18.4453719 C181.703648,18.4453719 233.365808,-16.7892231 221.780663,10.1381169" id="Path" fill="#FFFFFF"></path>
                        <path d="M40.0837354,16.7955369 C40.0837354,16.7955369 -9.84110659,-16.3917381 1.74403841,10.5356019" id="Path" fill="#FFFFFF"></path>
                        <path d="M100.110686,29.0885319 C100.110686,21.6089169 121.676153,21.3003669 121.676153,29.0885319" id="Path" fill="#FFFFFF"></path>
                        <path d="M91.8998074,43.2927219 C100.223034,32.8365069 103.531416,21.1823919 95.1660814,9.55913188 C86.8007464,-2.06594312 44.7827704,4.68041188 44.7827704,4.68041188 C44.7827704,4.68041188 40.8866914,13.6338069 40.1280214,23.4239169 C39.5671864,30.6603219 40.7208004,38.3541069 46.4295199,43.2273819 C59.8612459,54.6909219 82.8409609,54.6709569 91.8998074,43.2927219 Z" id="Path" fill="#C9E9FF"></path>
                    </g>
                    <path d="M0.058322,116.415125 C7.064222,116.415125 124.149146,48.595835 124.382555,47.274515 C124.555161,46.29986 124.987313,31.7 124.987313,31.7 L0.058322,92.983475 C0.058322,92.983475 -0.0729025,116.415125 0.058322,116.415125 Z" id="Path" stroke="#000000" stroke-width="3.53925" fill="#C70000" stroke-linecap="round" stroke-linejoin="round"></path>
                    <polyline id="Path" stroke="#000000" stroke-width="3.53925" fill="#2680BC" stroke-linecap="round" stroke-linejoin="round" points="123.849126 269.63924 232.796135 268.987655 17.178128 270.28901"></polyline>
                    <path d="M124.499441,258.64397 C124.499441,258.64397 176.534765,239.708075 203.527445,239.058305 C230.520125,238.40672 231.82148,267.688115 231.82148,267.688115" id="Path" stroke="#000000" stroke-width="3.53925" fill="#D9C6AF" stroke-linecap="round" stroke-linejoin="round"></path>
                    <path d="M126.775995,258.64397 C126.775995,258.64397 74.6600855,239.77886 47.4231065,239.047415 C20.186309,238.31597 22.5441755,259.06868 17.8284425,267.36323" id="Path" stroke="#000000" stroke-width="3.53925" fill="#D9C6AF" stroke-linecap="round" stroke-linejoin="round"></path>
                    <path d="M23.682362,252.0773 C23.682362,252.0773 37.1788835,249.22049 50.675405,249.465515 C64.1719265,249.708725 77.6682665,253.051955 77.6682665,253.051955" id="Path" stroke="#000000" stroke-width="1.5609" fill="#FFFFFF" stroke-linecap="round" stroke-linejoin="round"></path>
                    <path d="M125.475185,259.8818 C125.475185,259.8818 188.404865,252.307805 213.934655,251.251475 C239.464445,250.195145 227.59253,255.654665 227.59253,255.654665" id="Path" stroke="#000000" stroke-width="2.15985" fill="#FFFFFF" stroke-linecap="round" stroke-linejoin="round"></path>
                    <path d="M227.91923,256.95602 C227.91923,256.95602 218.97491,255.255365 210.03059,255.498575 C201.088085,255.7436 192.143765,257.930675 192.143765,257.930675" id="Path" stroke="#000000" stroke-width="1.61535" fill="#FFFFFF" stroke-linecap="round" stroke-linejoin="round"></path>
                    <path d="M224.330975,160.367165 C247.12193,159.07307 244.82777,171.275315 231.46937,185.08202 C214.885715,202.22288 186.57353,217.641305 186.57353,217.641305" id="Path" stroke="#000000" stroke-width="3.63" fill-opacity="0" fill="#FFFFFF" stroke-linecap="round" stroke-linejoin="round"></path>
                    <polygon id="Path" stroke="#000000" stroke-width="3.63" fill="#000000" stroke-linecap="round" stroke-linejoin="round" points="174.995645 239.02745 173.99195 232.83104 178.661945 217.43258 188.165285 186.09479 194.88986 187.6085 180.42794 232.83104"></polygon>
                </g>
            </g>
        </g>
    </g>
</svg>